<svg width="17" height="14" viewBox="0 0 17 14" fill="none" xmlns="http://www.w3.org/2000/svg">
    <g clip-path="url(#clip0_3211_14921)">
        <path
            d="M15.7282 8.88123C15.9768 8.88123 16.1784 8.67549 16.1784 8.42169C16.1784 8.1679 15.9768 7.96216 15.7282 7.96216C15.4795 7.96216 15.278 8.1679 15.278 8.42169C15.278 8.67549 15.4795 8.88123 15.7282 8.88123Z"
            fill="#4A40B4" />
        <path
            d="M2.56879 2.44545C2.70258 2.44545 2.81104 2.33475 2.81104 2.19819C2.81104 2.06163 2.70258 1.95093 2.56879 1.95093C2.435 1.95093 2.32654 2.06163 2.32654 2.19819C2.32654 2.33475 2.435 2.44545 2.56879 2.44545Z"
            fill="#359CF4" />
        <path
            d="M0.242253 8.66896C0.376046 8.66896 0.484507 8.55826 0.484507 8.4217C0.484507 8.28514 0.376046 8.17444 0.242253 8.17444C0.10846 8.17444 0 8.28514 0 8.4217C0 8.55826 0.10846 8.66896 0.242253 8.66896Z"
            fill="#359CF4" />
        <path
            d="M11.8179 1.76433C12.1208 1.76433 12.3664 1.51368 12.3664 1.20449C12.3664 0.895301 12.1208 0.644653 11.8179 0.644653C11.515 0.644653 11.2694 0.895301 11.2694 1.20449C11.2694 1.51368 11.515 1.76433 11.8179 1.76433Z"
            fill="#4A40B4" />
        <path d="M8.05513 1.61341L7.55994 2.44177L13.0069 5.83403L13.5021 5.00566L8.05513 1.61341Z"
            fill="url(#paint0_linear_3211_14921)" />
        <path d="M13.0156 5.00109L4.20654 10.2952L4.68893 11.1314L13.498 5.83729L13.0156 5.00109Z"
            fill="url(#paint1_linear_3211_14921)" />
        <path d="M7.56942 1.60679L1.88379 5.00061L2.36375 5.83827L8.04938 2.44444L7.56942 1.60679Z"
            fill="url(#paint2_linear_3211_14921)" />
        <path d="M2.54873 5.11559L2.05396 5.94421L12.7133 12.5748L13.2081 11.7462L2.54873 5.11559Z"
            fill="url(#paint3_linear_3211_14921)" />
        <path
            d="M12.7823 13.3553C13.4879 13.3553 14.0598 12.7715 14.0598 12.0514C14.0598 11.3312 13.4879 10.7474 12.7823 10.7474C12.0767 10.7474 11.5048 11.3312 11.5048 12.0514C11.5048 12.7715 12.0767 13.3553 12.7823 13.3553Z"
            fill="#050851" />
        <path
            d="M2.23059 6.75622C2.92985 6.75622 3.49671 6.17764 3.49671 5.46392C3.49671 4.75021 2.92985 4.17163 2.23059 4.17163C1.53134 4.17163 0.964478 4.75021 0.964478 5.46392C0.964478 6.17764 1.53134 6.75622 2.23059 6.75622Z"
            fill="url(#paint4_linear_3211_14921)" />
        <path
            d="M7.81836 3.3319C8.51762 3.3319 9.08448 2.75332 9.08448 2.03961C9.08448 1.32589 8.51762 0.747314 7.81836 0.747314C7.11911 0.747314 6.55225 1.32589 6.55225 2.03961C6.55225 2.75332 7.11911 3.3319 7.81836 3.3319Z"
            fill="#4B6DDC" />
        <path
            d="M13.2668 6.7329C13.9661 6.7329 14.533 6.15432 14.533 5.44061C14.533 4.72689 13.9661 4.14832 13.2668 4.14832C12.5676 4.14832 12.0007 4.72689 12.0007 5.44061C12.0007 6.15432 12.5676 6.7329 13.2668 6.7329Z"
            fill="#359CF4" />
        <path
            d="M4.44741 11.5335C4.8917 11.5335 5.25187 11.1659 5.25187 10.7125C5.25187 10.259 4.8917 9.89136 4.44741 9.89136C4.00311 9.89136 3.64294 10.259 3.64294 10.7125C3.64294 11.1659 4.00311 11.5335 4.44741 11.5335Z"
            fill="#7CB8F2" />
    </g>
    <defs>
        <linearGradient id="paint0_linear_3211_14921" x1="7.87056" y1="2.05615" x2="13.2548" y2="5.29821"
            gradientUnits="userSpaceOnUse">
            <stop offset="0.169771" stop-color="#4B6DDC" />
            <stop offset="0.839663" stop-color="#359CF4" />
        </linearGradient>
        <linearGradient id="paint1_linear_3211_14921" x1="4.48839" y1="10.689" x2="13.3121" y2="5.59615"
            gradientUnits="userSpaceOnUse">
            <stop stop-color="#3796F1" />
            <stop offset="0.0001" stop-color="#EFE3ED" />
            <stop offset="0.892871" stop-color="#359CF4" />
        </linearGradient>
        <linearGradient id="paint2_linear_3211_14921" x1="2.13429" y1="5.41063" x2="7.83733" y2="2.15087"
            gradientUnits="userSpaceOnUse">
            <stop offset="0.192708" stop-color="#4A40B4" />
            <stop offset="0.833333" stop-color="#4B6DDC" />
        </linearGradient>
        <linearGradient id="paint3_linear_3211_14921" x1="3.10666" y1="6.04065" x2="11.8299" y2="11.3207"
            gradientUnits="userSpaceOnUse">
            <stop offset="0.0148437" stop-color="#4F48BF" />
            <stop offset="1" stop-color="#050851" />
        </linearGradient>
        <linearGradient id="paint4_linear_3211_14921" x1="2.21917" y1="4.1483" x2="2.24536" y2="6.7912"
            gradientUnits="userSpaceOnUse">
            <stop stop-color="#4E47BE" />
            <stop offset="1" stop-color="#4E47BE" />
        </linearGradient>
        <clipPath id="clip0_3211_14921">
            <rect width="16.1784" height="12.7107" fill="white" transform="translate(0 0.644653)" />
        </clipPath>
    </defs>
</svg>