<svg width="211" height="42" viewBox="0 0 211 42" fill="none" xmlns="http://www.w3.org/2000/svg">
    <path
        d="M87.6748 9.12265C86.9254 8.37908 86.0354 7.79998 85.0593 7.42089C83.9841 6.99949 82.8409 6.7891 81.6895 6.80075H73.3918C72.933 6.80266 72.4937 6.99039 72.17 7.32285C71.8463 7.65531 71.6645 8.10541 71.6646 8.57462V30.099C71.6646 30.493 71.8176 30.8708 72.0899 31.1494C72.3623 31.428 72.7317 31.5845 73.1168 31.5845H74.5268C74.912 31.5845 75.2814 31.428 75.5537 31.1494C75.8261 30.8708 75.9791 30.493 75.9791 30.099V23.0901H81.6965C82.843 23.0981 83.981 22.8878 85.0523 22.47C86.0335 22.0928 86.9285 21.5136 87.6819 20.7682C88.4083 20.03 88.9856 19.1529 89.3809 18.1867C89.7986 17.1485 90.0095 16.0356 90.0013 14.913C90.0062 13.8117 89.7952 12.7206 89.3809 11.7041C88.9835 10.7374 88.4038 9.86016 87.6748 9.12265ZM85.1651 16.5354C84.9764 17.0211 84.6934 17.4627 84.3332 17.8334C83.9684 18.1991 83.5406 18.4925 83.0713 18.6987C82.5782 18.9109 82.0482 19.0189 81.5132 19.016H76.6911C76.5041 19.016 76.3248 18.94 76.1926 18.8048C76.0604 18.6695 75.9861 18.4861 75.9861 18.2949V11.6104C75.9861 11.4192 76.0604 11.2357 76.1926 11.1005C76.3248 10.9653 76.5041 10.8893 76.6911 10.8893H81.5132C82.0469 10.8853 82.5762 10.9882 83.0713 11.1922C83.5484 11.3834 83.979 11.6786 84.3332 12.0575C84.694 12.4387 84.9768 12.8898 85.1651 13.3843C85.3629 13.8961 85.4634 14.4419 85.4612 14.9923C85.4619 15.5215 85.3613 16.0458 85.1651 16.5354Z"
        fill="#4b5563" />
    <path
        d="M128.98 14.6825C128.74 14.4251 128.483 14.1842 128.212 13.9614C127.743 13.6056 127.234 13.3078 126.696 13.0745C124.821 12.2524 122.001 12.2813 120.175 12.6562C119.692 12.7421 119.219 12.8823 118.765 13.0745C117.916 13.4431 117.152 13.9911 116.523 14.6825C115.859 15.415 115.352 16.2822 115.036 17.2279C114.677 18.2949 114.501 19.4168 114.514 20.5449V29.9984C114.514 30.3191 114.638 30.6269 114.858 30.855C115.078 31.0831 115.378 31.2132 115.691 31.217H117.405C117.719 31.2151 118.021 31.0858 118.242 30.8575C118.464 30.6292 118.589 30.3203 118.589 29.9984V21.2948C118.585 20.6159 118.71 19.9426 118.956 19.3118C119.184 18.7529 119.511 18.2419 119.921 17.8048C120.323 17.3902 120.802 17.0639 121.331 16.8457C121.907 16.6091 122.523 16.4891 123.143 16.4924C123.67 16.4869 124.194 16.5823 124.687 16.7736C125.127 16.9482 125.524 17.2189 125.85 17.5668C126.193 17.9326 126.457 18.3673 126.626 18.8431C126.814 19.3871 126.907 19.9607 126.901 20.5377V29.9839C126.901 30.3071 127.026 30.6171 127.25 30.8456C127.473 31.0742 127.776 31.2026 128.092 31.2026H129.791C130.107 31.2026 130.41 31.0742 130.634 30.8456C130.857 30.6171 130.983 30.3071 130.983 29.9839V20.5161C130.996 19.388 130.819 18.266 130.461 17.1991C130.138 16.2668 129.635 15.4109 128.98 14.6825Z"
        fill="#4b5563" />
    <path
        d="M210.498 17.1991C210.178 16.2636 209.672 15.4065 209.01 14.6825C208.773 14.4216 208.516 14.1805 208.242 13.9614C207.776 13.6047 207.269 13.3069 206.733 13.0745C204.851 12.2524 202.031 12.2813 200.212 12.6562C199.741 12.7446 199.28 12.8848 198.837 13.0745C197.975 13.4387 197.199 13.9869 196.56 14.6825C195.896 15.415 195.389 16.2822 195.073 17.2279C194.709 18.2935 194.53 19.4162 194.544 20.5449V29.9984C194.544 30.3216 194.67 30.6315 194.893 30.8601C195.116 31.0886 195.419 31.217 195.735 31.217H197.47C197.786 31.217 198.089 31.0886 198.312 30.8601C198.536 30.6315 198.661 30.3216 198.661 29.9984V21.2948C198.654 20.6155 198.778 19.9415 199.028 19.3118C199.242 18.7523 199.561 18.2406 199.965 17.8048C200.367 17.3902 200.846 17.0639 201.375 16.8457C201.951 16.6084 202.566 16.4884 203.187 16.4924C203.712 16.4878 204.233 16.5832 204.724 16.7736C205.176 16.9502 205.585 17.2259 205.923 17.5812C206.243 17.9522 206.485 18.3866 206.635 18.8576C206.828 19.4002 206.924 19.9744 206.917 20.5521V29.9984C206.917 30.3203 207.041 30.6292 207.263 30.8575C207.485 31.0858 207.786 31.2151 208.101 31.217H209.814C210.129 31.2151 210.43 31.0858 210.652 30.8575C210.874 30.6292 210.998 30.3203 210.998 29.9984V20.5161C211.018 19.3893 210.849 18.2673 210.498 17.1991Z"
        fill="#4b5563" />
    <path
        d="M150.715 15.2661C149.41 13.9223 147.742 13.0063 145.926 12.6348C144.109 12.2633 142.226 12.453 140.515 13.1798C138.804 13.9067 137.344 15.1377 136.319 16.7163C135.295 18.2949 134.752 20.1496 134.762 22.0443C134.75 23.3274 134.99 24.5998 135.467 25.7867C136.179 27.5194 137.375 28.9985 138.906 30.0385C140.437 31.0786 142.233 31.6334 144.071 31.6334C145.909 31.6334 147.705 31.0786 149.236 30.0385C150.767 28.9985 151.963 27.5194 152.675 25.7867C153.404 24.0302 153.605 22.0914 153.252 20.2176C152.899 18.3439 152.009 16.6201 150.694 15.2661H150.715ZM148.918 24.3013C148.662 24.9532 148.289 25.5501 147.818 26.0607C147.348 26.5426 146.79 26.9249 146.175 27.1856C145.504 27.4647 144.785 27.6045 144.06 27.5967C143.335 27.6047 142.616 27.4625 141.945 27.1784C141.317 26.9155 140.748 26.5228 140.275 26.0247C139.795 25.5219 139.419 24.9261 139.168 24.2724C138.907 23.5604 138.778 22.8047 138.787 22.0443C138.777 21.2818 138.913 20.5247 139.189 19.8161C139.472 19.1625 139.871 18.5683 140.366 18.0639C140.835 17.5649 141.399 17.1697 142.023 16.9029C143.36 16.3546 144.852 16.3546 146.189 16.9029C146.814 17.1697 147.378 17.5649 147.846 18.0639C148.318 18.5725 148.694 19.1667 148.953 19.8161C149.225 20.5257 149.362 21.2821 149.355 22.0443C149.359 22.819 149.21 23.5866 148.918 24.3013Z"
        fill="#4b5563" />
    <path
        d="M167.988 26.941C167.967 26.9338 167.945 26.9338 167.924 26.941L167.776 27.0275C167.599 27.1273 167.412 27.2094 167.219 27.2727C167.036 27.3448 166.824 27.4097 166.592 27.4746C166.361 27.5324 166.124 27.5615 165.887 27.5611C165.571 27.5852 165.254 27.5419 164.955 27.4339C164.657 27.3259 164.383 27.1556 164.152 26.9337C163.712 26.3898 163.497 25.6909 163.553 24.9868V16.8457H166.676C166.912 16.8457 167.138 16.75 167.304 16.5796C167.471 16.4092 167.565 16.1781 167.565 15.9372V13.7739C167.566 13.6543 167.543 13.5358 167.499 13.4251C167.455 13.3144 167.389 13.2139 167.307 13.1293C167.224 13.0448 167.126 12.9779 167.017 12.9326C166.909 12.8872 166.793 12.8644 166.676 12.8654H163.553V7.81775C163.554 7.69877 163.532 7.58079 163.488 7.4706C163.444 7.36041 163.38 7.26019 163.298 7.17573C163.216 7.09126 163.118 7.02422 163.011 6.97847C162.903 6.93273 162.788 6.90918 162.672 6.90918H160.719C160.603 6.90918 160.488 6.93273 160.38 6.97847C160.273 7.02422 160.175 7.09126 160.094 7.17573C160.012 7.26019 159.947 7.36041 159.903 7.4706C159.859 7.58079 159.837 7.69877 159.838 7.81775V11.0771C159.891 11.5853 159.766 12.0962 159.485 12.5192C159.345 12.6602 159.177 12.768 158.992 12.8353C158.807 12.9026 158.609 12.9276 158.414 12.9086H157.074C156.958 12.9086 156.843 12.9322 156.736 12.9779C156.628 13.0237 156.531 13.0907 156.449 13.1752C156.367 13.2596 156.302 13.3598 156.258 13.47C156.214 13.5802 156.192 13.6982 156.193 13.8172V15.9804C156.204 16.2114 156.3 16.4294 156.463 16.5902C156.625 16.7509 156.841 16.8423 157.067 16.8457H159.464V25.3978C159.464 27.4097 159.965 28.96 160.945 30.0056C161.504 30.5555 162.168 30.98 162.897 31.2519C163.625 31.5238 164.401 31.6372 165.175 31.5848C165.562 31.589 165.949 31.5576 166.331 31.491L167.142 31.3324H167.261L167.565 31.2242C167.731 31.1585 167.874 31.0427 167.975 30.892C168.076 30.7414 168.129 30.563 168.129 30.3805V27.0708C168.132 27.0517 168.13 27.0322 168.124 27.014C168.117 26.9957 168.107 26.9794 168.093 26.9665C168.079 26.9536 168.062 26.9445 168.043 26.94C168.025 26.9356 168.006 26.9359 167.988 26.941Z"
        fill="#4b5563" />
    <path
        d="M187.6 15.2665C185.842 13.4944 183.469 12.5066 181.001 12.5192C179.46 12.524 177.943 12.9181 176.586 13.6665C175.229 14.415 174.074 15.4945 173.223 16.8093C172.372 18.1242 171.852 19.6336 171.708 21.2035C171.565 22.7735 171.803 24.3554 172.4 25.8088C172.859 26.9405 173.529 27.9694 174.374 28.8373C176.135 30.6264 178.516 31.6306 180.998 31.6306C183.48 31.6306 185.861 30.6264 187.621 28.8373C188.469 27.9701 189.142 26.9411 189.602 25.8088C190.333 24.0474 190.533 22.103 190.176 20.2247C189.819 18.3464 188.922 16.6199 187.6 15.2665ZM185.802 24.3017C185.55 24.9551 185.176 25.5525 184.702 26.0612C184.234 26.5447 183.675 26.9272 183.06 27.1861C182.399 27.4605 181.693 27.6001 180.98 27.5971C180.255 27.6052 179.535 27.4629 178.865 27.1788C178.237 26.916 177.668 26.5232 177.194 26.0251C176.715 25.5237 176.341 24.9275 176.095 24.2729C175.828 23.5622 175.696 22.8059 175.707 22.0447C175.697 21.2822 175.833 20.5251 176.109 19.8166C176.368 19.1671 176.743 18.5729 177.215 18.0643C177.68 17.5637 178.242 17.1682 178.865 16.9034C180.202 16.355 181.695 16.355 183.032 16.9034C183.656 17.1701 184.22 17.5653 184.688 18.0643C185.161 18.5729 185.536 19.1671 185.795 19.8166C186.345 21.2587 186.345 22.8595 185.795 24.3017H185.802Z"
        fill="#4b5563" />
    <path
        d="M106.336 14.4588C105.199 13.4058 103.798 12.6986 102.289 12.417C100.78 12.1354 99.225 12.2907 97.7982 12.8652C96.9956 13.2093 96.2359 13.6499 95.5352 14.1776C95.0835 14.5144 94.6634 14.8934 94.2803 15.3097C94.1023 15.5079 94.0065 15.769 94.0131 16.0381C94.0197 16.3071 94.1281 16.563 94.3155 16.7519L95.5211 17.9849C95.6987 18.1674 95.9364 18.2758 96.1878 18.2891C96.4392 18.3025 96.6865 18.2197 96.8817 18.0571C97.0662 17.8984 97.2617 17.7538 97.4668 17.6244C97.8966 17.2857 98.3713 17.0113 98.8768 16.8096C99.4568 16.561 100.081 16.4383 100.71 16.449C101.193 16.4398 101.672 16.5306 102.12 16.7158C102.521 16.8788 102.897 17.1024 103.234 17.3792C103.53 17.6284 103.772 17.9378 103.946 18.2878C104.063 18.5135 104.144 18.757 104.185 19.0089C104.191 19.0425 104.191 19.077 104.184 19.1105C104.177 19.1439 104.164 19.1756 104.145 19.2038C104.126 19.2319 104.101 19.2559 104.073 19.2745C104.045 19.293 104.014 19.3057 103.981 19.3117L98.0661 20.3862C96.5843 20.599 95.2146 21.3122 94.1745 22.4124C93.2295 23.425 92.6997 24.7694 92.6941 26.1693C92.6768 26.8934 92.8156 27.6125 93.1007 28.2755C93.3859 28.9385 93.8102 29.5292 94.3437 30.0055C94.8961 30.5001 95.5282 30.8929 96.2119 31.1664C96.982 31.4642 97.7999 31.6109 98.623 31.5991C99.4446 31.6208 100.262 31.4737 101.027 31.1664C101.627 30.9146 102.187 30.5745 102.691 30.1569C103.205 29.7601 103.644 29.2715 103.988 28.7147H104.178V30.092C104.178 30.3903 104.294 30.6764 104.5 30.8874C104.707 31.0984 104.986 31.2169 105.278 31.2169H107.337C107.628 31.2169 107.908 31.0984 108.114 30.8874C108.321 30.6764 108.436 30.3903 108.436 30.092V19.6651C108.444 18.675 108.254 17.6937 107.879 16.7807C107.522 15.909 106.997 15.1195 106.336 14.4588ZM103.854 25.1237C103.626 25.6853 103.299 26.1987 102.888 26.638C102.487 27.0629 102.008 27.4033 101.478 27.6403C100.94 27.8783 100.359 28.001 99.7721 28.0008C99.3887 28.0015 99.0077 27.9382 98.6442 27.8134C98.3137 27.7036 98.0105 27.5216 97.7559 27.2797C97.5318 27.0733 97.3435 26.8295 97.1989 26.5587C97.0084 26.1851 96.9485 25.756 97.0293 25.3428C97.1101 24.9296 97.3267 24.5571 97.6431 24.2872C98.3481 23.8166 99.1582 23.5363 99.9977 23.4724L103.995 22.7153H104.03C104.08 22.7152 104.127 22.7348 104.162 22.7697C104.198 22.8047 104.219 22.8524 104.221 22.9028V23.2777C104.217 23.9115 104.092 24.5385 103.854 25.1237Z"
        fill="#4b5563" />
    <g clip-path="url(#clip0_1306_13511)">
        <path
            d="M51.9708 27.2163C52.7925 27.2163 53.4585 26.5365 53.4585 25.6979C53.4585 24.8593 52.7925 24.1794 51.9708 24.1794C51.1492 24.1794 50.4832 24.8593 50.4832 25.6979C50.4832 26.5365 51.1492 27.2163 51.9708 27.2163Z"
            fill="#4A40B4" />
        <path
            d="M8.48822 5.95047C8.93032 5.95047 9.28871 5.58467 9.28871 5.13344C9.28871 4.6822 8.93032 4.31641 8.48822 4.31641C8.04613 4.31641 7.68774 4.6822 7.68774 5.13344C7.68774 5.58467 8.04613 5.95047 8.48822 5.95047Z"
            fill="#359CF4" />
        <path
            d="M0.800481 26.5149C1.24257 26.5149 1.60096 26.1491 1.60096 25.6979C1.60096 25.2467 1.24257 24.8809 0.800481 24.8809C0.358387 24.8809 0 25.2467 0 25.6979C0 26.1491 0.358387 26.5149 0.800481 26.5149Z"
            fill="#359CF4" />
        <path
            d="M39.05 3.69976C40.0509 3.69976 40.8624 2.87154 40.8624 1.84988C40.8624 0.82822 40.0509 0 39.05 0C38.049 0 37.2375 0.82822 37.2375 1.84988C37.2375 2.87154 38.049 3.69976 39.05 3.69976Z"
            fill="#4A40B4" />
        <path d="M26.6168 3.20082L24.9805 5.93799L42.979 17.1471L44.6152 14.4099L26.6168 3.20082Z"
            fill="url(#paint0_linear_1306_13511)" />
        <path d="M43.0074 14.3951L13.8997 31.8884L15.4936 34.6515L44.6014 17.1582L43.0074 14.3951Z"
            fill="url(#paint1_linear_1306_13511)" />
        <path d="M25.0115 3.17905L6.22437 14.3933L7.81029 17.1612L26.5974 5.94693L25.0115 3.17905Z"
            fill="url(#paint2_linear_1306_13511)" />
        <path d="M8.42199 14.7734L6.78711 17.5115L42.0089 39.421L43.6438 36.683L8.42199 14.7734Z"
            fill="url(#paint3_linear_1306_13511)" />
        <path
            d="M42.2368 41.9999C44.5682 41.9999 46.4582 40.0709 46.4582 37.6912C46.4582 35.3116 44.5682 33.3826 42.2368 33.3826C39.9054 33.3826 38.0154 35.3116 38.0154 37.6912C38.0154 40.0709 39.9054 41.9999 42.2368 41.9999Z"
            fill="#050851" />
        <path
            d="M7.37041 20.1946C9.68098 20.1946 11.5541 18.2828 11.5541 15.9244C11.5541 13.5661 9.68098 11.6543 7.37041 11.6543C5.05985 11.6543 3.18677 13.5661 3.18677 15.9244C3.18677 18.2828 5.05985 20.1946 7.37041 20.1946Z"
            fill="url(#paint4_linear_1306_13511)" />
        <path
            d="M25.8343 8.87939C28.1448 8.87939 30.0179 6.96759 30.0179 4.60925C30.0179 2.25092 28.1448 0.339111 25.8343 0.339111C23.5237 0.339111 21.6506 2.25092 21.6506 4.60925C21.6506 6.96759 23.5237 8.87939 25.8343 8.87939Z"
            fill="#4B6DDC" />
        <path
            d="M43.8377 20.1174C46.1483 20.1174 48.0213 18.2056 48.0213 15.8473C48.0213 13.489 46.1483 11.5771 43.8377 11.5771C41.5271 11.5771 39.6541 13.489 39.6541 15.8473C39.6541 18.2056 41.5271 20.1174 43.8377 20.1174Z"
            fill="#359CF4" />
        <path
            d="M14.6956 35.9803C16.1636 35.9803 17.3538 34.7655 17.3538 33.2671C17.3538 31.7687 16.1636 30.554 14.6956 30.554C13.2275 30.554 12.0374 31.7687 12.0374 33.2671C12.0374 34.7655 13.2275 35.9803 14.6956 35.9803Z"
            fill="#7CB8F2" />
    </g>
    <defs>
        <linearGradient id="paint0_linear_1306_13511" x1="26.0069" y1="4.66377" x2="43.7979" y2="15.3765"
            gradientUnits="userSpaceOnUse">
            <stop offset="0.169771" stop-color="#4B6DDC" />
            <stop offset="0.839663" stop-color="#359CF4" />
        </linearGradient>
        <linearGradient id="paint1_linear_1306_13511" x1="14.831" y1="33.1898" x2="43.9872" y2="16.3614"
            gradientUnits="userSpaceOnUse">
            <stop stop-color="#3796F1" />
            <stop offset="0.0001" stop-color="#EFE3ED" />
            <stop offset="0.892871" stop-color="#359CF4" />
        </linearGradient>
        <linearGradient id="paint2_linear_1306_13511" x1="7.05211" y1="15.7482" x2="25.8967" y2="4.97689"
            gradientUnits="userSpaceOnUse">
            <stop offset="0.192708" stop-color="#4A40B4" />
            <stop offset="0.833333" stop-color="#4B6DDC" />
        </linearGradient>
        <linearGradient id="paint3_linear_1306_13511" x1="10.2656" y1="17.8301" x2="39.09" y2="35.2769"
            gradientUnits="userSpaceOnUse">
            <stop offset="0.0148437" stop-color="#4F48BF" />
            <stop offset="1" stop-color="#050851" />
        </linearGradient>
        <linearGradient id="paint4_linear_1306_13511" x1="7.33265" y1="11.5772" x2="7.41919" y2="20.3102"
            gradientUnits="userSpaceOnUse">
            <stop stop-color="#4E47BE" />
            <stop offset="1" stop-color="#4E47BE" />
        </linearGradient>
        <clipPath id="clip0_1306_13511">
            <rect width="53.4585" height="42" fill="#4b5563" />
        </clipPath>
    </defs>
</svg>